<?xml version="1.0" standalone="no"?><!DOCTYPE svg PUBLIC "-//W3C//DTD SVG 1.1//EN" "http://www.w3.org/Graphics/SVG/1.1/DTD/svg11.dtd"><svg t="1619578783831" class="icon" viewBox="0 0 1024 1024" version="1.1" xmlns="http://www.w3.org/2000/svg" p-id="2089" xmlns:xlink="http://www.w3.org/1999/xlink" width="200" height="200"><defs><style type="text/css"></style></defs><path d="M512 874.666667c-202.112 0-320-71.381333-320-234.666667 0-119.125333 103.68-245.077333 308.224-380.458667L512 251.733333l11.776 7.808C728.32 394.922667 832 520.874667 832 640c0 163.285333-117.888 234.666667-320 234.666667zM234.666667 640c0 134.058667 95.744 192 277.333333 192s277.333333-57.941333 277.333333-192c0-98.730667-91.562667-211.925333-277.333333-337.024C326.229333 428.074667 234.666667 541.269333 234.666667 640z" fill="#000000" p-id="2090"></path><path d="M490.666667 170.666667a21.333333 21.333333 0 1 1 42.666666 0v682.666666a21.333333 21.333333 0 1 1-42.666666 0V170.666667z" fill="#000000" p-id="2091"></path><path d="M582.229333 198.229333a21.333333 21.333333 0 1 1 30.208 30.208l-85.333333 85.333334a21.333333 21.333333 0 1 1-30.208-30.208l85.333333-85.333334z" fill="#000000" p-id="2092"></path><path d="M411.562667 228.437333a21.333333 21.333333 0 1 1 30.208-30.208l85.333333 85.333334a21.333333 21.333333 0 1 1-30.208 30.208l-85.333333-85.333334z" fill="#000000" p-id="2093"></path><path d="M523.264 284.928l-32.64 27.477333c202.965333 240.512 202.965333 409.856 5.76 522.410667l21.12 37.034667c224-127.829333 224-328.277333 5.76-586.922667z" fill="#000000" p-id="2094"></path><path d="M495.701333 284.928l32.597334 27.477333c-202.965333 240.512-202.965333 409.856-5.717334 522.410667l-21.162666 37.034667c-224-127.829333-224-328.277333-5.717334-586.922667z" fill="#000000" p-id="2095"></path></svg>